<svg xmlns="http://www.w3.org/2000/svg" viewBox="0 0 283 64" fill="none">
  <path d="M141.68 16.25c-11.04 0-19.2 7.16-19.2 18.39 0 11.24 8.14 18.39 19.2 18.39 11.04 0 19.19-7.16 19.19-18.39 0-11.23-8.14-18.39-19.19-18.39Zm0 29.16c-5.64 0-9.57-4.11-9.57-10.77s3.93-10.77 9.57-10.77c5.63 0 9.56 4.1 9.56 10.77 0 6.66-3.93 10.77-9.56 10.77Zm40.04-29.16c-11.05 0-19.2 7.16-19.2 18.39 0 11.24 8.15 18.39 19.2 18.39s19.19-7.16 19.19-18.39c0-11.23-8.14-18.39-19.19-18.39Zm0 29.16c-5.64 0-9.57-4.11-9.57-10.77s3.93-10.77 9.57-10.77c5.63 0 9.56 4.1 9.56 10.77 0 6.66-3.93 10.77-9.56 10.77Zm53.68-29.16c-4.56 0-8.62 2.19-11.23 5.18V17h-9.39v50.39h9.39V48.76c2.61 2.97 6.67 5.16 11.23 5.16 9.97 0 17.64-7.33 17.64-18.34s-7.67-18.33-17.64-18.33Zm-1.37 29.16c-5.64 0-9.57-4.11-9.57-10.77s3.93-10.77 9.57-10.77c5.63 0 9.56 4.1 9.56 10.77 0 6.66-3.93 10.77-9.56 10.77Z" fill="#000"/>
  <path d="m39.06 0 39.07 64H0l39.06-64Z" fill="#000"/>
</svg>
